<svg viewBox="0 0 129 191" fill="none" xmlns="http://www.w3.org/2000/svg">
  <path d="M128 190.5C123 36 92 40 125.5 1C105.5 46.5 128 55.5 128 190.5ZM128 190.5C124.536 147.179 115 122 96 98C104.637 114.982 109.074 124.961 115 145C121.971 109.343 119.362 87.9584 87.5 44M128 190.5C118.506 137.082 85.5 126 73 138.5C62.5 149 86 198 112.5 179.5C121 171 112.5 132.5 87.5 117.5M87.5 117.5C133 162.5 91 219.5 1 166C96 209 122.5 164.5 87.5 117.5ZM121.5 184.5L47 122.5M116 177L59 124M113 181L50.5 133.5" stroke="black" stroke-width="1"/>
</svg>
